<svg width="78" height="38" viewBox="0 0 78 38" version="1.1" xmlns="http://www.w3.org/2000/svg" xmlns:xlink="http://www.w3.org/1999/xlink">
<title>Arrow</title>
<desc>Created using Figma</desc>
<g id="Canvas" transform="translate(57 53)">
<g id="Arrow">
<use xlink:href="#path0_stroke" transform="matrix(-1 1.22465e-16 -1.22465e-16 -1 21 -34)"/>
</g>
</g>
<defs>
<path id="path0_stroke" d="M 76.7678 1.76777C 77.7441 0.791456 77.7441 -0.791456 76.7678 -1.76777L 60.8579 -17.6777C 59.8816 -18.654 58.2986 -18.654 57.3223 -17.6777C 56.346 -16.7014 56.346 -15.1184 57.3223 -14.1421L 71.4645 0L 57.3223 14.1421C 56.346 15.1184 56.346 16.7014 57.3223 17.6777C 58.2986 18.654 59.8816 18.654 60.8579 17.6777L 76.7678 1.76777ZM 0 2.5L 75 2.5L 75 -2.5L 0 -2.5L 0 2.5Z"/>
</defs>
</svg>
