<svg width="808" height="508" viewBox="0 0 808 508" version="1.1" xmlns="http://www.w3.org/2000/svg" xmlns:xlink="http://www.w3.org/1999/xlink">
<title>Beginners BRB</title>
<desc>Created using Figma</desc>
<g id="Canvas" transform="translate(402 318)">
<g id="Group">
<g id="Rectangle" filter="url(#filter0_dd)">
<use xlink:href="#path0_fill" transform="translate(-398 -318)" fill="#F2C94C"/>
</g>
<g id="Be right back" filter="url(#filter1_dd)">
<use xlink:href="#path1_fill" transform="translate(-234 -110)" fill="#FFFFFF"/>
</g>
<g id="Ellipse" filter="url(#filter2_d)">
<use xlink:href="#path2_fill" transform="translate(238 -259)" fill="#F2C94C"/>
</g>
<g id="Polygon" filter="url(#filter3_d)">
<use xlink:href="#path3_fill" transform="translate(263 -234)" fill="#FFFFFF"/>
</g>
</g>
</g>
<defs>
<filter id="filter0_dd" filterUnits="userSpaceOnUse" x="-402" y="-318" width="808" height="508" color-interpolation-filters="sRGB">
<feFlood flood-opacity="0" result="BackgroundImageFix"/>
<feColorMatrix in="SourceAlpha" type="matrix" values="0 0 0 0 0 0 0 0 0 0 0 0 0 0 0 0 0 0 255 0"/>
<feOffset dx="0" dy="4"/>
<feGaussianBlur stdDeviation="2"/>
<feColorMatrix type="matrix" values="0 0 0 0 0 0 0 0 0 0 0 0 0 0 0 0 0 0 0.25 0"/>
<feBlend mode="normal" in2="BackgroundImageFix" result="effect1_dropShadow"/>
<feColorMatrix in="SourceAlpha" type="matrix" values="0 0 0 0 0 0 0 0 0 0 0 0 0 0 0 0 0 0 255 0"/>
<feOffset dx="0" dy="4"/>
<feGaussianBlur stdDeviation="2"/>
<feColorMatrix type="matrix" values="0 0 0 0 0 0 0 0 0 0 0 0 0 0 0 0 0 0 0.25 0"/>
<feBlend mode="normal" in2="effect1_dropShadow" result="effect2_dropShadow"/>
<feBlend mode="normal" in="SourceGraphic" in2="effect2_dropShadow" result="shape"/>
</filter>
<filter id="filter1_dd" filterUnits="userSpaceOnUse" x="-234" y="-95" width="477" height="78" color-interpolation-filters="sRGB">
<feFlood flood-opacity="0" result="BackgroundImageFix"/>
<feColorMatrix in="SourceAlpha" type="matrix" values="0 0 0 0 0 0 0 0 0 0 0 0 0 0 0 0 0 0 255 0"/>
<feOffset dx="0" dy="4"/>
<feGaussianBlur stdDeviation="2"/>
<feColorMatrix type="matrix" values="0 0 0 0 0 0 0 0 0 0 0 0 0 0 0 0 0 0 0.25 0"/>
<feBlend mode="normal" in2="BackgroundImageFix" result="effect1_dropShadow"/>
<feColorMatrix in="SourceAlpha" type="matrix" values="0 0 0 0 0 0 0 0 0 0 0 0 0 0 0 0 0 0 255 0"/>
<feOffset dx="0" dy="4"/>
<feGaussianBlur stdDeviation="2"/>
<feColorMatrix type="matrix" values="0 0 0 0 0 0 0 0 0 0 0 0 0 0 0 0 0 0 0.25 0"/>
<feBlend mode="normal" in2="effect1_dropShadow" result="effect2_dropShadow"/>
<feBlend mode="normal" in="SourceGraphic" in2="effect2_dropShadow" result="shape"/>
</filter>
<filter id="filter2_d" filterUnits="userSpaceOnUse" x="234" y="-259" width="108" height="108" color-interpolation-filters="sRGB">
<feFlood flood-opacity="0" result="BackgroundImageFix"/>
<feColorMatrix in="SourceAlpha" type="matrix" values="0 0 0 0 0 0 0 0 0 0 0 0 0 0 0 0 0 0 255 0"/>
<feOffset dx="0" dy="4"/>
<feGaussianBlur stdDeviation="2"/>
<feColorMatrix type="matrix" values="0 0 0 0 0 0 0 0 0 0 0 0 0 0 0 0 0 0 0.25 0"/>
<feBlend mode="normal" in2="BackgroundImageFix" result="effect1_dropShadow"/>
<feBlend mode="normal" in="SourceGraphic" in2="effect1_dropShadow" result="shape"/>
</filter>
<filter id="filter3_d" filterUnits="userSpaceOnUse" x="262" y="-234" width="52" height="46" color-interpolation-filters="sRGB">
<feFlood flood-opacity="0" result="BackgroundImageFix"/>
<feColorMatrix in="SourceAlpha" type="matrix" values="0 0 0 0 0 0 0 0 0 0 0 0 0 0 0 0 0 0 255 0"/>
<feOffset dx="0" dy="4"/>
<feGaussianBlur stdDeviation="2"/>
<feColorMatrix type="matrix" values="0 0 0 0 0 0 0 0 0 0 0 0 0 0 0 0 0 0 0.25 0"/>
<feBlend mode="normal" in2="BackgroundImageFix" result="effect1_dropShadow"/>
<feBlend mode="normal" in="SourceGraphic" in2="effect1_dropShadow" result="shape"/>
</filter>
<path id="path0_fill" d="M 0 100C 0 44.7715 44.7715 0 100 0L 700 0C 755.228 0 800 44.7715 800 100L 800 400C 800 455.228 755.228 500 700 500L 100 500C 44.7715 500 0 455.228 0 400L 0 100Z"/>
<path id="path1_fill" d="M 47.88 54.896C 47.88 57.2 47.4 59.192 46.44 60.872C 45.48 62.504 44.16 63.848 42.48 64.904C 40.8 65.96 38.832 66.752 36.576 67.28C 34.368 67.76 32.016 68 29.52 68L 4.392 68L 4.392 16.88L 34.056 16.88C 35.832 16.88 37.44 17.264 38.88 18.032C 40.32 18.8 41.544 19.808 42.552 21.056C 43.56 22.256 44.328 23.648 44.856 25.232C 45.432 26.768 45.72 28.352 45.72 29.984C 45.72 32.384 45.096 34.688 43.848 36.896C 42.648 39.056 40.824 40.688 38.376 41.792C 41.304 42.656 43.608 44.168 45.288 46.328C 47.016 48.44 47.88 51.296 47.88 54.896ZM 33.624 52.016C 33.624 50.768 33.288 49.736 32.616 48.92C 31.944 48.056 31.08 47.624 30.024 47.624L 18.432 47.624L 18.432 56.192L 29.52 56.192C 30.672 56.192 31.632 55.832 32.4 55.112C 33.216 54.392 33.624 53.36 33.624 52.016ZM 18.432 28.832L 18.432 36.68L 28.008 36.68C 28.968 36.68 29.832 36.416 30.6 35.888C 31.416 35.36 31.824 34.304 31.824 32.72C 31.824 31.328 31.488 30.344 30.816 29.768C 30.144 29.144 29.352 28.832 28.44 28.832L 18.432 28.832ZM 71.8149 68.72C 68.5029 68.72 65.5509 68.216 62.9589 67.208C 60.3669 66.152 58.1829 64.736 56.4069 62.96C 54.6789 61.184 53.3589 59.144 52.4469 56.84C 51.5349 54.536 51.0789 52.112 51.0789 49.568C 51.0789 46.832 51.5109 44.24 52.3749 41.792C 53.2869 39.344 54.6069 37.208 56.3349 35.384C 58.1109 33.56 60.2709 32.12 62.8149 31.064C 65.4069 29.96 68.4069 29.408 71.8149 29.408C 75.1749 29.408 78.1509 29.96 80.7429 31.064C 83.3349 32.12 85.4949 33.56 87.2229 35.384C 88.9989 37.16 90.3189 39.248 91.1829 41.648C 92.0949 44 92.5509 46.472 92.5509 49.064C 92.5509 49.784 92.5029 50.528 92.4069 51.296C 92.3589 52.016 92.2869 52.664 92.1909 53.24L 65.6229 53.24C 65.7669 55.256 66.5109 56.72 67.8549 57.632C 69.1989 58.496 70.6629 58.928 72.2469 58.928C 73.7349 58.928 75.1269 58.592 76.4229 57.92C 77.7669 57.248 78.6549 56.312 79.0869 55.112L 90.6789 58.424C 89.1429 61.448 86.7669 63.92 83.5509 65.84C 80.3829 67.76 76.4709 68.72 71.8149 68.72ZM 77.8629 45.032C 77.6229 43.208 76.9509 41.768 75.8469 40.712C 74.7429 39.656 73.3269 39.128 71.5989 39.128C 69.8709 39.128 68.4549 39.656 67.3509 40.712C 66.2469 41.768 65.5749 43.208 65.3349 45.032L 77.8629 45.032ZM 138.918 41.792C 136.278 41.792 133.878 42.08 131.718 42.656C 129.558 43.232 127.95 44.192 126.894 45.536L 126.894 68L 113.214 68L 113.214 30.128L 125.742 30.128L 125.742 37.328C 127.086 34.784 128.742 32.84 130.71 31.496C 132.726 30.104 134.886 29.408 137.19 29.408C 138.102 29.408 138.678 29.432 138.918 29.48L 138.918 41.792ZM 143.167 68L 143.167 30.128L 156.847 30.128L 156.847 68L 143.167 68ZM 143.167 26.96L 143.167 15.44L 156.847 15.44L 156.847 26.96L 143.167 26.96ZM 178.312 68C 175.864 68 173.608 67.52 171.544 66.56C 169.529 65.552 167.8 64.208 166.361 62.528C 164.921 60.8 163.792 58.784 162.976 56.48C 162.208 54.176 161.825 51.68 161.825 48.992C 161.825 46.16 162.256 43.544 163.12 41.144C 163.984 38.744 165.184 36.68 166.72 34.952C 168.304 33.224 170.177 31.88 172.337 30.92C 174.496 29.912 176.872 29.408 179.464 29.408C 182.2 29.408 184.601 29.96 186.665 31.064C 188.728 32.12 190.361 33.68 191.56 35.744L 191.56 30.128L 203.44 30.128L 203.44 64.544C 203.44 67.52 202.888 70.208 201.785 72.608C 200.681 75.008 199.12 77.048 197.105 78.728C 195.089 80.408 192.665 81.704 189.833 82.616C 187.001 83.576 183.856 84.056 180.4 84.056C 176.368 84.056 172.864 83.432 169.888 82.184C 166.912 80.936 164.273 79.136 161.969 76.784L 169.168 69.296C 170.56 70.592 172.217 71.672 174.137 72.536C 176.105 73.448 178.192 73.904 180.4 73.904C 181.648 73.904 182.824 73.736 183.928 73.4C 185.08 73.064 186.088 72.512 186.952 71.744C 187.816 71.024 188.489 70.064 188.969 68.864C 189.496 67.664 189.761 66.224 189.761 64.544L 189.761 62.096C 188.656 64.112 187.072 65.6 185.008 66.56C 182.993 67.52 180.761 68 178.312 68ZM 183.209 57.2C 184.601 57.2 185.8 56.888 186.809 56.264C 187.865 55.592 188.849 54.608 189.761 53.312L 189.761 46.544C 189.089 44.816 188.081 43.448 186.737 42.44C 185.441 41.432 184.072 40.928 182.632 40.928C 181.672 40.928 180.761 41.168 179.897 41.648C 179.081 42.08 178.361 42.68 177.737 43.448C 177.113 44.168 176.633 45.056 176.297 46.112C 175.96 47.12 175.792 48.2 175.792 49.352C 175.792 51.704 176.488 53.6 177.88 55.04C 179.272 56.48 181.049 57.2 183.209 57.2ZM 248.474 68L 234.794 68L 234.794 46.688C 234.794 44.816 234.362 43.472 233.498 42.656C 232.682 41.792 231.65 41.36 230.402 41.36C 229.97 41.36 229.442 41.504 228.818 41.792C 228.242 42.032 227.642 42.392 227.018 42.872C 226.442 43.304 225.89 43.856 225.362 44.528C 224.834 45.2 224.402 45.944 224.066 46.76L 224.066 68L 210.386 68L 210.386 15.44L 224.066 15.44L 224.066 35.744C 225.41 33.68 227.162 32.12 229.322 31.064C 231.482 29.96 233.906 29.408 236.594 29.408C 239.234 29.408 241.346 29.864 242.93 30.776C 244.514 31.688 245.714 32.84 246.53 34.232C 247.346 35.576 247.874 37.04 248.114 38.624C 248.354 40.208 248.474 41.696 248.474 43.088L 248.474 68ZM 281.672 65.912C 279.752 66.728 277.688 67.424 275.48 68C 273.32 68.528 271.184 68.792 269.072 68.792C 267.536 68.792 266.072 68.6 264.68 68.216C 263.288 67.832 262.064 67.208 261.008 66.344C 260 65.48 259.184 64.352 258.56 62.96C 257.984 61.568 257.696 59.84 257.696 57.776L 257.696 40.424L 253.016 40.424L 253.016 30.128L 257.696 30.128L 257.696 18.248L 271.376 18.248L 271.376 30.128L 278.792 30.128L 278.792 40.424L 271.376 40.424L 271.376 52.952C 271.376 54.2 271.64 55.088 272.168 55.616C 272.696 56.096 273.416 56.336 274.328 56.336C 275 56.336 275.768 56.24 276.632 56.048C 277.496 55.808 278.36 55.496 279.224 55.112L 281.672 65.912ZM 325.842 68.72C 320.13 68.72 316.05 66.512 313.602 62.096L 313.602 68L 301.722 68L 301.722 15.44L 315.402 15.44L 315.402 35.744C 316.506 33.68 318.066 32.12 320.082 31.064C 322.098 29.96 324.474 29.408 327.21 29.408C 329.514 29.408 331.65 29.912 333.618 30.92C 335.634 31.928 337.362 33.32 338.802 35.096C 340.242 36.824 341.37 38.912 342.186 41.36C 343.002 43.76 343.41 46.376 343.41 49.208C 343.41 52.04 342.954 54.656 342.042 57.056C 341.178 59.408 339.954 61.448 338.37 63.176C 336.834 64.904 334.986 66.272 332.826 67.28C 330.666 68.24 328.338 68.72 325.842 68.72ZM 321.882 57.2C 324.138 57.2 325.938 56.48 327.282 55.04C 328.674 53.6 329.37 51.68 329.37 49.28C 329.37 48.128 329.178 47.048 328.794 46.04C 328.458 45.032 327.978 44.144 327.354 43.376C 326.778 42.608 326.058 42.008 325.194 41.576C 324.378 41.144 323.466 40.928 322.458 40.928C 321.018 40.928 319.65 41.456 318.354 42.512C 317.058 43.52 316.074 44.864 315.402 46.544L 315.402 53.312C 317.178 55.904 319.338 57.2 321.882 57.2ZM 359.499 68.72C 357.627 68.72 355.875 68.408 354.243 67.784C 352.611 67.16 351.195 66.32 349.995 65.264C 348.843 64.16 347.931 62.864 347.259 61.376C 346.587 59.888 346.251 58.28 346.251 56.552C 346.251 54.632 346.659 52.88 347.475 51.296C 348.291 49.712 349.419 48.344 350.859 47.192C 352.299 46.04 354.003 45.152 355.971 44.528C 357.987 43.904 360.195 43.592 362.595 43.592C 365.667 43.592 368.211 44.072 370.227 45.032L 370.227 43.88C 370.227 42.104 369.699 40.784 368.643 39.92C 367.635 39.056 365.979 38.624 363.675 38.624C 361.515 38.624 359.523 38.984 357.699 39.704C 355.875 40.376 353.955 41.384 351.939 42.728L 347.979 34.232C 352.971 31.016 358.659 29.408 365.043 29.408C 371.091 29.408 375.747 30.752 379.011 33.44C 382.275 36.128 383.907 40.16 383.907 45.536L 383.907 52.88C 383.907 54.176 384.099 55.088 384.483 55.616C 384.867 56.096 385.539 56.384 386.499 56.48L 386.499 68C 385.395 68.24 384.339 68.408 383.331 68.504C 382.371 68.648 381.507 68.72 380.739 68.72C 378.291 68.72 376.419 68.288 375.123 67.424C 373.875 66.512 373.059 65.192 372.675 63.464L 372.387 62.096C 370.707 64.256 368.763 65.912 366.555 67.064C 364.347 68.168 361.995 68.72 359.499 68.72ZM 363.603 58.928C 364.419 58.928 365.259 58.808 366.123 58.568C 366.987 58.28 367.755 57.92 368.427 57.488C 368.955 57.104 369.387 56.696 369.723 56.264C 370.059 55.784 370.227 55.304 370.227 54.824L 370.227 52.016C 369.411 51.728 368.523 51.488 367.563 51.296C 366.603 51.104 365.739 51.008 364.971 51.008C 363.291 51.008 361.899 51.416 360.795 52.232C 359.691 53.048 359.139 54.08 359.139 55.328C 359.139 56.384 359.547 57.248 360.363 57.92C 361.227 58.592 362.307 58.928 363.603 58.928ZM 389.352 49.064C 389.352 46.472 389.808 44 390.72 41.648C 391.632 39.248 392.952 37.16 394.68 35.384C 396.456 33.56 398.64 32.12 401.232 31.064C 403.824 29.96 406.8 29.408 410.16 29.408C 414.768 29.408 418.608 30.368 421.68 32.288C 424.8 34.208 427.128 36.68 428.664 39.704L 415.344 43.736C 414.048 41.864 412.296 40.928 410.088 40.928C 408.216 40.928 406.632 41.648 405.336 43.088C 404.04 44.48 403.392 46.472 403.392 49.064C 403.392 51.656 404.04 53.672 405.336 55.112C 406.632 56.504 408.216 57.2 410.088 57.2C 412.296 57.2 414.048 56.264 415.344 54.392L 428.664 58.424C 427.128 61.448 424.8 63.92 421.68 65.84C 418.608 67.76 414.768 68.72 410.16 68.72C 406.8 68.72 403.824 68.192 401.232 67.136C 398.64 66.032 396.456 64.592 394.68 62.816C 392.952 60.992 391.632 58.904 390.72 56.552C 389.808 54.152 389.352 51.656 389.352 49.064ZM 457.979 68L 449.411 54.176L 446.675 57.2L 446.675 68L 432.995 68L 432.995 15.44L 446.675 15.44L 446.675 44.168L 456.755 30.128L 471.155 30.128L 458.123 46.688L 472.451 68L 457.979 68Z"/>
<path id="path2_fill" d="M 100 50C 100 77.6142 77.6142 100 50 100C 22.3858 100 0 77.6142 0 50C 0 22.3858 22.3858 0 50 0C 77.6142 0 100 22.3858 100 50Z"/>
<path id="path3_fill" d="M 25 0L 46.6506 37.5L 3.34937 37.5L 25 0Z"/>
</defs>
</svg>
